<svg width="80" height="22" viewBox="0 0 80 22" fill="none" xmlns="http://www.w3.org/2000/svg">
<g id="Logo">
<path id="Logo_2" d="M75.7212 10.4725L80 22C78.7388 21.8165 77.4782 21.5869 76.194 21.3807L73.7837 15.0103L71.3066 20.8542C70.0906 20.648 68.8963 20.5786 67.6803 20.4184L72.0274 10.335L68.0856 0H71.7348L73.9418 5.77442L76.3069 0H80L75.7212 10.4725ZM65.2031 0H61.8923V19.9833C62.9732 20.0521 64.0993 20.0974 65.2031 20.2349V0ZM59.0315 19.7537C56.0139 19.5475 52.9956 19.3647 49.9104 19.2953V0H53.2881V16.0414C55.2255 16.0874 57.1623 16.2476 59.0315 16.339V19.7537ZM46.3064 7.81448V11.2519H41.6898V19.0664H38.3561V0H47.8156V3.43744H41.6898V7.81448H46.3064ZM32.6803 3.43744V19.2499C31.5541 19.2499 30.4057 19.2499 29.3019 19.2953V3.43744H25.8108V0H36.1937V3.43744H32.6803ZM22.1622 11.4347C20.676 11.4347 18.919 11.4347 17.6578 11.5042V16.6146C19.6398 16.4765 21.6218 16.3163 23.6261 16.2476V19.5475L14.2794 20.3043V0H23.6261V3.43744H17.6578V8.06605C18.9642 8.06605 20.9685 7.99731 22.1622 7.99731V11.4347ZM3.44589 9.51017V21.5182C2.22993 21.6563 1.14841 21.8165 0 22V0H3.22094L7.61258 12.4898V0H10.9909V20.5786C9.79726 20.7855 8.5813 20.8542 7.29711 21.037L3.44589 9.51017Z" fill="#E50914"/>
</g>
</svg>
