<svg width="16" height="16" viewBox="0 0 16 16" fill="none" xmlns="http://www.w3.org/2000/svg">
<g id="&#236;&#149;&#132;&#236;&#157;&#180;&#236;&#189;&#152; / &#235;&#136;&#136;(&#234;&#176;&#144;&#236;&#182;&#164;)" clip-path="url(#clip0_153_72)">
<path id="Vector" d="M8.00002 4.66667C9.84002 4.66667 11.3334 6.16 11.3334 8C11.3334 8.43 11.2467 8.84 11.0967 9.21667L13.0467 11.1667C14.0534 10.3267 14.8467 9.24 15.3367 8C14.18 5.07333 11.3367 3 8.00002 3C7.06669 3 6.17335 3.16667 5.34335 3.46667L6.78335 4.90333C7.16002 4.75667 7.57002 4.66667 8.00002 4.66667ZM1.33335 2.85L2.85335 4.37L3.15669 4.67333C2.05669 5.53333 1.18669 6.67667 0.666687 8C1.82002 10.9267 4.66669 13 8.00002 13C9.03335 13 10.02 12.8 10.9234 12.4367L11.2067 12.72L13.15 14.6667L14 13.82L2.18335 2L1.33335 2.85ZM5.02002 6.53333L6.05002 7.56333C6.02002 7.70667 6.00002 7.85 6.00002 8C6.00002 9.10333 6.89669 10 8.00002 10C8.15002 10 8.29335 9.98 8.43335 9.95L9.46335 10.98C9.02002 11.2 8.52669 11.3333 8.00002 11.3333C6.16002 11.3333 4.66669 9.84 4.66669 8C4.66669 7.47333 4.80002 6.98 5.02002 6.53333ZM7.89002 6.01L9.99002 8.11L10 8C10 6.89667 9.10335 6 8.00002 6L7.89002 6.01Z" fill="#FEFEFE"/>
</g>
<defs>
<clipPath id="clip0_153_72">
<rect width="16" height="16" fill="white"/>
</clipPath>
</defs>
</svg>
